<?xml version="1.0" encoding="utf-8"?>
<!-- Generator: Adobe Illustrator 22.0.1, SVG Export Plug-In . SVG Version: 6.00 Build 0)  -->
<svg version="1.1" id="Lager_1" xmlns="http://www.w3.org/2000/svg" xmlns:xlink="http://www.w3.org/1999/xlink" x="0px" y="0px"
	 viewBox="0 0 267 267" style="enable-background:new 0 0 267 267;" xml:space="preserve">
<style type="text/css">
	.st0{fill:none;stroke:#2A265D;stroke-width:5;}
</style>
<image style="overflow:visible;enable-background:new    ;" width="245" height="238" id="Lager_1_2_" xlink:href="BC3BECC9E36D9D6F.png"  transform="matrix(1 0 0 1 16 15)">
</image>
<path class="st0" d="M261,182.8c-41.8,71-128.4,91.6-193.5,46C15.5,192.3,0.3,116.7,33.8,60c26.7-45.4,82.2-58.6,123.8-29.4
	c33.3,23.3,43,71.7,21.6,108c-17.1,29.1-52.6,37.5-79.3,18.8c-21.3-14.9-27.5-45.9-13.8-69.2c11-18.6,33.7-24,50.7-12.1
	c13.6,9.6,17.6,29.4,8.8,44.3c-7,11.9-21.5,15.4-32.5,7.7c-8.7-6.1-11.3-18.8-5.7-28.3"/>
</svg>
